{
  "tool": "ffmpeg",
  "command": "/home/derrick/.openclaw/workspace/projects/peanut-gallery/emotion-engine/node_modules/ffmpeg-static/ffmpeg",
  "args": [
    "-ss",
    "115",
    "-i",
    "/home/derrick/.openclaw/workspace/projects/peanut-gallery/emotion-engine/examples/videos/emotion-tests/cod.mp4",
    "-t",
    "5",
    "-c",
    "copy",
    "-y",
    "/home/derrick/.openclaw/workspace/projects/peanut-gallery/emotion-engine/output/cod-test/assets/processed/chunks/chunk_023.mp4"
  ],
  "chunkIndex": 23,
  "startTime": 115,
  "endTime": 120,
  "status": "success",
  "exitCode": 0,
  "stderr": "ffmpeg version 7.0.2-static https://johnvansickle.com/ffmpeg/  Copyright (c) 2000-2024 the FFmpeg developers\n  built with gcc 8 (Debian 8.3.0-6)\n  configuration: --enable-gpl --enable-version3 --enable-static --disable-debug --disable-ffplay --disable-indev=sndio --disable-outdev=sndio --cc=gcc --enable-fontconfig --enable-frei0r --enable-gnutls --enable-gmp --enable-libgme --enable-gray --enable-libaom --enable-libfribidi --enable-libass --enable-libvmaf --enable-libfreetype --enable-libmp3lame --enable-libopencore-amrnb --enable-libopencore-amrwb --enable-libopenjpeg --enable-librubberband --enable-libsoxr --enable-libspeex --enable-libsrt --enable-libvorbis --enable-libopus --enable-libtheora --enable-libvidstab --enable-libvo-amrwbenc --enable-libvpx --enable-libwebp --enable-libx264 --enable-libx265 --enable-libxml2 --enable-libdav1d --enable-libxvid --enable-libzvbi --enable-libzimg\n  libavutil      59.  8.100 / 59.  8.100\n  libavcodec     61.  3.100 / 61.  3.100\n  libavformat    61.  1.100 / 61.  1.100\n  libavdevice    61.  1.100 / 61.  1.100\n  libavfilter    10.  1.100 / 10.  1.100\n  libswscale      8.  1.100 /  8.  1.100\n  libswresample   5.  1.100 /  5.  1.100\n  libpostproc    58.  1.100 / 58.  1.100\nInput #0, mov,mp4,m4a,3gp,3g2,mj2, from '/home/derrick/.openclaw/workspace/projects/peanut-gallery/emotion-engine/examples/videos/emotion-tests/cod.mp4':\n  Metadata:\n    major_brand     : isom\n    minor_version   : 512\n    compatible_brands: isomiso2avc1mp41\n    encoder         : Lavf60.16.100\n  Duration: 00:02:20.02, start: 0.000000, bitrate: 3543 kb/s\n  Stream #0:0[0x1](und): Audio: aac (LC) (mp4a / 0x6134706D), 44100 Hz, stereo, fltp, 128 kb/s (default)\n      Metadata:\n        handler_name    : SoundHandler\n        vendor_id       : [0][0][0][0]\n  Stream #0:1[0x2](und): Video: h264 (Main) (avc1 / 0x31637661), yuv420p(tv, bt709, progressive), 1280x720 [SAR 1:1 DAR 16:9], 3400 kb/s, 59.94 fps, 59.94 tbr, 90k tbn (default)\n      Metadata:\n        handler_name    : VideoHandler\n        vendor_id       : [0][0][0][0]\nStream mapping:\n  Stream #0:1 -> #0:0 (copy)\n  Stream #0:0 -> #0:1 (copy)\nOutput #0, mp4, to '/home/derrick/.openclaw/workspace/projects/peanut-gallery/emotion-engine/output/cod-test/assets/processed/chunks/chunk_023.mp4':\n  Metadata:\n    major_brand     : isom\n    minor_version   : 512\n    compatible_brands: isomiso2avc1mp41\n    encoder         : Lavf61.1.100\n  Stream #0:0(und): Video: h264 (Main) (avc1 / 0x31637661), yuv420p(tv, bt709, progressive), 1280x720 [SAR 1:1 DAR 16:9], q=2-31, 3400 kb/s, 59.94 fps, 59.94 tbr, 90k tbn (default)\n      Metadata:\n        handler_name    : VideoHandler\n        vendor_id       : [0][0][0][0]\n  Stream #0:1(und): Audio: aac (LC) (mp4a / 0x6134706D), 44100 Hz, stereo, fltp, 128 kb/s (default)\n      Metadata:\n        handler_name    : SoundHandler\n        vendor_id       : [0][0][0][0]\nPress [q] to stop, [?] for help\n[out#0/mp4 @ 0x104fedc0] video:2417KiB audio:90KiB subtitle:0KiB other streams:0KiB global headers:0KiB muxing overhead: 0.517361%\nsize=    2519KiB time=00:00:05.01 bitrate=4112.1kbits/s speed=1.38e+03x    \n",
  "outputPath": "/home/derrick/.openclaw/workspace/projects/peanut-gallery/emotion-engine/output/cod-test/assets/processed/chunks/chunk_023.mp4",
  "fileSize": 2579957
}